<svg width="25" height="26" viewBox="0 0 25 26" fill="none" xmlns="http://www.w3.org/2000/svg">
<path d="M7.50694 26C6.8188 26 6.22971 25.7454 5.73968 25.2362C5.24964 24.7271 5.00462 24.115 5.00462 23.4C5.00462 22.685 5.24964 22.0729 5.73968 21.5637C6.22971 21.0546 6.8188 20.8 7.50694 20.8C8.19507 20.8 8.78416 21.0546 9.27419 21.5637C9.76423 22.0729 10.0092 22.685 10.0092 23.4C10.0092 24.115 9.76423 24.7271 9.27419 25.2362C8.78416 25.7454 8.19507 26 7.50694 26ZM20.0185 26C19.3304 26 18.7413 25.7454 18.2512 25.2362C17.7612 24.7271 17.5162 24.115 17.5162 23.4C17.5162 22.685 17.7612 22.0729 18.2512 21.5637C18.7413 21.0546 19.3304 20.8 20.0185 20.8C20.7066 20.8 21.2957 21.0546 21.7858 21.5637C22.2758 22.0729 22.5208 22.685 22.5208 23.4C22.5208 24.115 22.2758 24.7271 21.7858 25.2362C21.2957 25.7454 20.7066 26 20.0185 26ZM6.44345 5.2L9.44623 11.7H18.2043L21.645 5.2H6.44345ZM5.25486 2.6H23.7094C24.189 2.6 24.5539 2.82208 24.8042 3.26625C25.0544 3.71042 25.0648 4.16 24.8354 4.615L20.3938 12.935C20.1645 13.3683 19.8569 13.7042 19.4711 13.9425C19.0853 14.1808 18.6631 14.3 18.2043 14.3H8.88321L7.50694 16.9H22.5208V19.5H7.50694C6.56857 19.5 5.85958 19.0721 5.37997 18.2162C4.90036 17.3604 4.87951 16.51 5.31741 15.665L7.00647 12.48L2.50231 2.6H0V0H4.06626L5.25486 2.6Z" fill="#1F4662"/>
</svg>
